<svg xmlns="http://www.w3.org/2000/svg" xmlns:xlink="http://www.w3.org/1999/xlink" width="1920" zoomAndPan="magnify" viewBox="0 0 1440 809.999993" height="1080" preserveAspectRatio="xMidYMid meet" version="1.2"><defs><clipPath id="731d85712c"><path d="M 449.273438 267.269531 L 674.234375 267.269531 L 674.234375 338.101562 L 449.273438 338.101562 Z M 449.273438 267.269531 "/></clipPath><clipPath id="21fd65853a"><path d="M 449.285156 267.269531 L 673.882812 267.269531 L 673.882812 337.988281 L 449.285156 337.988281 Z M 449.285156 267.269531 "/></clipPath><clipPath id="be1b8c1498"><path d="M 38.175781 172.878906 L 477.621094 172.878906 L 477.621094 439.460938 L 38.175781 439.460938 Z M 38.175781 172.878906 "/></clipPath><clipPath id="9f05038914"><path d="M 76.425781 172.878906 L 439.195312 172.878906 C 460.320312 172.878906 477.445312 190.003906 477.445312 211.128906 L 477.445312 401.210938 C 477.445312 422.335938 460.320312 439.460938 439.195312 439.460938 L 76.425781 439.460938 C 55.300781 439.460938 38.175781 422.335938 38.175781 401.210938 L 38.175781 211.128906 C 38.175781 190.003906 55.300781 172.878906 76.425781 172.878906 Z M 76.425781 172.878906 "/></clipPath><clipPath id="4ac681300c"><path d="M 38.175781 172.878906 L 477.542969 172.878906 L 477.542969 439.460938 L 38.175781 439.460938 Z M 38.175781 172.878906 "/></clipPath><clipPath id="f2ea3cdaca"><path d="M 76.425781 172.878906 L 439.191406 172.878906 C 460.316406 172.878906 477.441406 190.003906 477.441406 211.128906 L 477.441406 401.210938 C 477.441406 422.335938 460.316406 439.460938 439.191406 439.460938 L 76.425781 439.460938 C 55.300781 439.460938 38.175781 422.335938 38.175781 401.210938 L 38.175781 211.128906 C 38.175781 190.003906 55.300781 172.878906 76.425781 172.878906 Z M 76.425781 172.878906 "/></clipPath><clipPath id="a39984310e"><path d="M 87.355469 425.609375 L 148.875 425.609375 L 148.875 479.933594 L 87.355469 479.933594 Z M 87.355469 425.609375 "/></clipPath><clipPath id="3a6b98c1b5"><path d="M 87.359375 425.609375 L 148.855469 425.609375 L 148.855469 479.914062 L 87.359375 479.914062 Z M 87.359375 425.609375 "/></clipPath><clipPath id="ef6d5fa9bb"><path d="M 366.746094 423.8125 L 428.265625 423.8125 L 428.265625 478.136719 L 366.746094 478.136719 Z M 366.746094 423.8125 "/></clipPath><clipPath id="8e1b698bb2"><path d="M 366.75 423.8125 L 428.246094 423.8125 L 428.246094 478.117188 L 366.75 478.117188 Z M 366.75 423.8125 "/></clipPath><clipPath id="413ac615af"><path d="M 767.203125 267.269531 L 985.605469 267.269531 L 985.605469 338.101562 L 767.203125 338.101562 Z M 767.203125 267.269531 "/></clipPath><clipPath id="aa53b03dad"><path d="M 767.214844 267.269531 L 985.230469 267.269531 L 985.230469 337.976562 L 767.214844 337.976562 Z M 767.214844 267.269531 "/></clipPath><clipPath id="b4208e4d18"><path d="M 962.847656 172.878906 L 1402.296875 172.878906 L 1402.296875 439.460938 L 962.847656 439.460938 Z M 962.847656 172.878906 "/></clipPath><clipPath id="99098e7142"><path d="M 1001.097656 172.878906 L 1363.867188 172.878906 C 1384.992188 172.878906 1402.117188 190.003906 1402.117188 211.128906 L 1402.117188 401.210938 C 1402.117188 422.335938 1384.992188 439.460938 1363.867188 439.460938 L 1001.097656 439.460938 C 979.972656 439.460938 962.847656 422.335938 962.847656 401.210938 L 962.847656 211.128906 C 962.847656 190.003906 979.972656 172.878906 1001.097656 172.878906 Z M 1001.097656 172.878906 "/></clipPath><clipPath id="c00947c7c6"><path d="M 962.847656 172.878906 L 1402.21875 172.878906 L 1402.21875 439.460938 L 962.847656 439.460938 Z M 962.847656 172.878906 "/></clipPath><clipPath id="24826f265f"><path d="M 1001.097656 172.878906 L 1363.867188 172.878906 C 1384.992188 172.878906 1402.117188 190.003906 1402.117188 211.128906 L 1402.117188 401.210938 C 1402.117188 422.335938 1384.992188 439.460938 1363.867188 439.460938 L 1001.097656 439.460938 C 979.972656 439.460938 962.847656 422.335938 962.847656 401.210938 L 962.847656 211.128906 C 962.847656 190.003906 979.972656 172.878906 1001.097656 172.878906 Z M 1001.097656 172.878906 "/></clipPath><clipPath id="8171080e18"><path d="M 1012.03125 425.609375 L 1073.546875 425.609375 L 1073.546875 479.933594 L 1012.03125 479.933594 Z M 1012.03125 425.609375 "/></clipPath><clipPath id="a55b6af7ba"><path d="M 1012.03125 425.609375 L 1073.53125 425.609375 L 1073.53125 479.914062 L 1012.03125 479.914062 Z M 1012.03125 425.609375 "/></clipPath><clipPath id="3de4942f61"><path d="M 1291.417969 423.8125 L 1352.9375 423.8125 L 1352.9375 478.136719 L 1291.417969 478.136719 Z M 1291.417969 423.8125 "/></clipPath><clipPath id="c05b947f85"><path d="M 1291.421875 423.8125 L 1352.917969 423.8125 L 1352.917969 478.117188 L 1291.421875 478.117188 Z M 1291.421875 423.8125 "/></clipPath><clipPath id="e700627e0d"><path d="M 656.695312 205.78125 L 714.410156 205.78125 L 714.410156 399.589844 L 656.695312 399.589844 Z M 656.695312 205.78125 "/></clipPath><clipPath id="232d02ac57"><path d="M 656.695312 205.785156 L 714.289062 205.785156 L 714.289062 399.191406 L 656.695312 399.191406 Z M 656.695312 205.785156 "/></clipPath><clipPath id="1d321e7632"><path d="M 725.882812 205.78125 L 783.597656 205.78125 L 783.597656 399.589844 L 725.882812 399.589844 Z M 725.882812 205.78125 "/></clipPath><clipPath id="1e1a335a54"><path d="M 725.882812 205.785156 L 783.480469 205.785156 L 783.480469 399.191406 L 725.882812 399.191406 Z M 725.882812 205.785156 "/></clipPath><clipPath id="2efa936f30"><path d="M 699.257812 173.804688 L 740.578125 173.804688 L 740.578125 431.5625 L 699.257812 431.5625 Z M 699.257812 173.804688 "/></clipPath><clipPath id="53133c3f84"><path d="M 699.257812 173.84375 L 740.398438 173.84375 L 740.398438 431.304688 L 699.257812 431.304688 Z M 699.257812 173.84375 "/></clipPath><clipPath id="d1d3c92c82"><path d="M 517.007812 80.25 L 609 80.25 L 609 172.5 L 517.007812 172.5 Z M 517.007812 80.25 "/></clipPath><clipPath id="8691f3e57f"><path d="M 821.960938 122 L 850 122 L 850 132 L 821.960938 132 Z M 821.960938 122 "/></clipPath><clipPath id="1496b35e3f"><path d="M 211.328125 204.28125 L 303.578125 204.28125 L 303.578125 296.53125 L 211.328125 296.53125 Z M 211.328125 204.28125 "/></clipPath><clipPath id="5816e2f13e"><path d="M 1191 204.28125 L 1200 204.28125 L 1200 232 L 1191 232 Z M 1191 204.28125 "/></clipPath><clipPath id="df24ee97d2"><path d="M 1213 246 L 1241.691406 246 L 1241.691406 255 L 1213 255 Z M 1213 246 "/></clipPath><clipPath id="31bcd5fca0"><path d="M 1191 268 L 1200 268 L 1200 296.53125 L 1191 296.53125 Z M 1191 268 "/></clipPath><clipPath id="f6fba87256"><path d="M 1149.441406 246 L 1178 246 L 1178 255 L 1149.441406 255 Z M 1149.441406 246 "/></clipPath></defs><g id="4fcf14f4b7"><g clip-rule="nonzero" clip-path="url(#731d85712c)"><path style=" stroke:none;fill-rule:nonzero;fill:#a8a9a3;fill-opacity:1;" d="M 449.273438 267.269531 L 674.222656 267.269531 L 674.222656 338.101562 L 449.273438 338.101562 Z M 449.273438 267.269531 "/></g><g clip-rule="nonzero" clip-path="url(#21fd65853a)"><path style="fill:none;stroke-width:36.461388;stroke-linecap:butt;stroke-linejoin:miter;stroke:#000000;stroke-opacity:1;stroke-miterlimit:4;" d="M 0.00211868 0.00152477 L 273.37977 0.00152477 L 273.37977 86.079564 L 0.00211868 86.079564 Z M 0.00211868 0.00152477 " transform="matrix(0.821566,0,0,0.821566,449.283416,267.268279)"/></g><g clip-rule="nonzero" clip-path="url(#be1b8c1498)"><g clip-rule="nonzero" clip-path="url(#9f05038914)"><path style=" stroke:none;fill-rule:nonzero;fill:#d40019;fill-opacity:1;" d="M 38.175781 172.878906 L 477.621094 172.878906 L 477.621094 439.460938 L 38.175781 439.460938 Z M 38.175781 172.878906 "/></g></g><g clip-rule="nonzero" clip-path="url(#4ac681300c)"><g clip-rule="nonzero" clip-path="url(#f2ea3cdaca)"><path style="fill:none;stroke-width:36.461388;stroke-linecap:butt;stroke-linejoin:miter;stroke:#000000;stroke-opacity:1;stroke-miterlimit:4;" d="M 46.48823 0.00056849 L 487.386165 0.00056849 C 513.061059 0.00056849 533.874434 20.813944 533.874434 46.488838 L 533.874434 277.510658 C 533.874434 303.185552 513.061059 323.998927 487.386165 323.998927 L 46.48823 323.998927 C 20.813336 323.998927 -0.0000392952 303.185552 -0.0000392952 277.510658 L -0.0000392952 46.488838 C -0.0000392952 20.813944 20.813336 0.00056849 46.48823 0.00056849 Z M 46.48823 0.00056849 " transform="matrix(0.822788,0,0,0.822788,38.175814,172.878439)"/></g></g><g clip-rule="nonzero" clip-path="url(#a39984310e)"><path style=" stroke:none;fill-rule:nonzero;fill:#a8a9a3;fill-opacity:1;" d="M 87.355469 425.609375 L 148.894531 425.609375 L 148.894531 479.933594 L 87.355469 479.933594 Z M 87.355469 425.609375 "/></g><g clip-rule="nonzero" clip-path="url(#3a6b98c1b5)"><path style="fill:none;stroke-width:36.461388;stroke-linecap:butt;stroke-linejoin:miter;stroke:#000000;stroke-opacity:1;stroke-miterlimit:4;" d="M 0.000136608 -0.0021877 L 74.758936 -0.0021877 L 74.758936 66.014253 L 0.000136608 66.014253 Z M 0.000136608 -0.0021877 " transform="matrix(0.822593,0,0,0.822593,87.359263,425.611175)"/></g><g clip-rule="nonzero" clip-path="url(#ef6d5fa9bb)"><path style=" stroke:none;fill-rule:nonzero;fill:#a8a9a3;fill-opacity:1;" d="M 366.746094 423.8125 L 428.285156 423.8125 L 428.285156 478.136719 L 366.746094 478.136719 Z M 366.746094 423.8125 "/></g><g clip-rule="nonzero" clip-path="url(#8e1b698bb2)"><path style="fill:none;stroke-width:36.461388;stroke-linecap:butt;stroke-linejoin:miter;stroke:#000000;stroke-opacity:1;stroke-miterlimit:4;" d="M 0.00175959 0.000152349 L 74.760559 0.000152349 L 74.760559 66.016593 L 0.00175959 66.016593 Z M 0.00175959 0.000152349 " transform="matrix(0.822593,0,0,0.822593,366.748553,423.812375)"/></g><g clip-rule="nonzero" clip-path="url(#413ac615af)"><path style=" stroke:none;fill-rule:nonzero;fill:#a8a9a3;fill-opacity:1;" d="M 767.203125 267.269531 L 985.511719 267.269531 L 985.511719 338.101562 L 767.203125 338.101562 Z M 767.203125 267.269531 "/></g><g clip-rule="nonzero" clip-path="url(#aa53b03dad)"><path style="fill:none;stroke-width:36.461388;stroke-linecap:butt;stroke-linejoin:miter;stroke:#000000;stroke-opacity:1;stroke-miterlimit:4;" d="M 0.00118345 0.00152501 L 265.41041 0.00152501 L 265.41041 86.079293 L 0.00118345 86.079293 Z M 0.00118345 0.00152501 " transform="matrix(0.821432,0,0,0.821432,767.213872,267.268279)"/></g><g clip-rule="nonzero" clip-path="url(#b4208e4d18)"><g clip-rule="nonzero" clip-path="url(#99098e7142)"><path style=" stroke:none;fill-rule:nonzero;fill:#006eab;fill-opacity:1;" d="M 962.847656 172.878906 L 1402.296875 172.878906 L 1402.296875 439.460938 L 962.847656 439.460938 Z M 962.847656 172.878906 "/></g></g><g clip-rule="nonzero" clip-path="url(#c00947c7c6)"><g clip-rule="nonzero" clip-path="url(#24826f265f)"><path style="fill:none;stroke-width:36.461388;stroke-linecap:butt;stroke-linejoin:miter;stroke:#000000;stroke-opacity:1;stroke-miterlimit:4;" d="M 46.485968 0.00056849 L 487.388651 0.00056849 C 513.063544 0.00056849 533.87692 20.813944 533.87692 46.488838 L 533.87692 277.510658 C 533.87692 303.185552 513.063544 323.998927 487.388651 323.998927 L 46.485968 323.998927 C 20.811074 323.998927 -0.00230136 303.185552 -0.00230136 277.510658 L -0.00230136 46.488838 C -0.00230136 20.813944 20.811074 0.00056849 46.485968 0.00056849 Z M 46.485968 0.00056849 " transform="matrix(0.822788,0,0,0.822788,962.84955,172.878439)"/></g></g><g clip-rule="nonzero" clip-path="url(#8171080e18)"><path style=" stroke:none;fill-rule:nonzero;fill:#a8a9a3;fill-opacity:1;" d="M 1012.03125 425.609375 L 1073.566406 425.609375 L 1073.566406 479.933594 L 1012.03125 479.933594 Z M 1012.03125 425.609375 "/></g><g clip-rule="nonzero" clip-path="url(#a55b6af7ba)"><path style="fill:none;stroke-width:36.461388;stroke-linecap:butt;stroke-linejoin:miter;stroke:#000000;stroke-opacity:1;stroke-miterlimit:4;" d="M -0.00208281 -0.0021877 L 74.761465 -0.0021877 L 74.761465 66.014253 L -0.00208281 66.014253 Z M -0.00208281 -0.0021877 " transform="matrix(0.822593,0,0,0.822593,1012.032963,425.611175)"/></g><g clip-rule="nonzero" clip-path="url(#3de4942f61)"><path style=" stroke:none;fill-rule:nonzero;fill:#a8a9a3;fill-opacity:1;" d="M 1291.417969 423.8125 L 1352.957031 423.8125 L 1352.957031 478.136719 L 1291.417969 478.136719 Z M 1291.417969 423.8125 "/></g><g clip-rule="nonzero" clip-path="url(#c05b947f85)"><path style="fill:none;stroke-width:36.461388;stroke-linecap:butt;stroke-linejoin:miter;stroke:#000000;stroke-opacity:1;stroke-miterlimit:4;" d="M -0.000168069 0.000152349 L 74.758631 0.000152349 L 74.758631 66.016593 L -0.000168069 66.016593 Z M -0.000168069 0.000152349 " transform="matrix(0.822593,0,0,0.822593,1291.422013,423.812375)"/></g><g clip-rule="nonzero" clip-path="url(#e700627e0d)"><path style=" stroke:none;fill-rule:nonzero;fill:#949494;fill-opacity:1;" d="M 656.695312 205.78125 L 714.410156 205.78125 L 714.410156 399.667969 L 656.695312 399.667969 Z M 656.695312 205.78125 "/></g><g clip-rule="nonzero" clip-path="url(#232d02ac57)"><path style="fill:none;stroke-width:36.461388;stroke-linecap:butt;stroke-linejoin:miter;stroke:#000000;stroke-opacity:1;stroke-miterlimit:4;" d="M -0.000122616 -0.00151667 L 70.138776 -0.00151667 L 70.138776 235.532744 L -0.000122616 235.532744 Z M -0.000122616 -0.00151667 " transform="matrix(0.821139,0,0,0.821139,656.695413,205.786402)"/></g><g clip-rule="nonzero" clip-path="url(#1d321e7632)"><path style=" stroke:none;fill-rule:nonzero;fill:#949494;fill-opacity:1;" d="M 725.882812 205.78125 L 783.597656 205.78125 L 783.597656 399.667969 L 725.882812 399.667969 Z M 725.882812 205.78125 "/></g><g clip-rule="nonzero" clip-path="url(#1e1a335a54)"><path style="fill:none;stroke-width:36.461388;stroke-linecap:butt;stroke-linejoin:miter;stroke:#000000;stroke-opacity:1;stroke-miterlimit:4;" d="M -0.000805228 -0.00151667 L 70.14285 -0.00151667 L 70.14285 235.532744 L -0.000805228 235.532744 Z M -0.000805228 -0.00151667 " transform="matrix(0.821139,0,0,0.821139,725.883474,205.786402)"/></g><g clip-rule="nonzero" clip-path="url(#2efa936f30)"><path style=" stroke:none;fill-rule:nonzero;fill:#6e6e74;fill-opacity:1;" d="M 699.257812 173.804688 L 740.578125 173.804688 L 740.578125 431.566406 L 699.257812 431.566406 Z M 699.257812 173.804688 "/></g><g clip-rule="nonzero" clip-path="url(#53133c3f84)"><path style="fill:none;stroke-width:36.461388;stroke-linecap:butt;stroke-linejoin:miter;stroke:#000000;stroke-opacity:1;stroke-miterlimit:4;" d="M 0.000685155 0.00173746 L 50.205297 0.00173746 L 50.205297 313.180091 L 0.000685155 313.180091 Z M 0.000685155 0.00173746 " transform="matrix(0.819459,0,0,0.82209,699.257251,173.842322)"/></g><g clip-rule="nonzero" clip-path="url(#d1d3c92c82)"><path style=" stroke:none;fill-rule:nonzero;fill:#d40019;fill-opacity:1;" d="M 608.875 126.1875 C 608.875 151.558594 588.308594 172.125 562.9375 172.125 C 537.570312 172.125 517.003906 151.558594 517.003906 126.1875 C 517.003906 100.820312 537.570312 80.253906 562.9375 80.253906 C 588.308594 80.253906 608.875 100.820312 608.875 126.1875 "/></g><path style=" stroke:none;fill-rule:nonzero;fill:#ffffff;fill-opacity:1;" d="M 600.757812 126.1875 C 600.757812 147.074219 583.824219 164.007812 562.9375 164.007812 C 542.054688 164.007812 525.121094 147.074219 525.121094 126.1875 C 525.121094 105.300781 542.054688 88.371094 562.9375 88.371094 C 583.824219 88.371094 600.757812 105.300781 600.757812 126.1875 "/><path style=" stroke:none;fill-rule:nonzero;fill:#d40019;fill-opacity:1;" d="M 593.464844 126.1875 C 593.464844 143.046875 579.796875 156.714844 562.9375 156.714844 C 546.082031 156.714844 532.414062 143.046875 532.414062 126.1875 C 532.414062 109.332031 546.082031 95.664062 562.9375 95.664062 C 579.796875 95.664062 593.464844 109.332031 593.464844 126.1875 "/><path style=" stroke:none;fill-rule:nonzero;fill:#ffffff;fill-opacity:1;" d="M 585.308594 126.1875 C 585.308594 138.542969 575.292969 148.558594 562.9375 148.558594 C 550.585938 148.558594 540.570312 138.542969 540.570312 126.1875 C 540.570312 113.835938 550.585938 103.820312 562.9375 103.820312 C 575.292969 103.820312 585.308594 113.835938 585.308594 126.1875 "/><path style=" stroke:none;fill-rule:nonzero;fill:#d40019;fill-opacity:1;" d="M 576.5625 126.1875 C 576.5625 133.710938 570.460938 139.8125 562.9375 139.8125 C 555.414062 139.8125 549.316406 133.710938 549.316406 126.1875 C 549.316406 118.664062 555.414062 112.566406 562.9375 112.566406 C 570.460938 112.566406 576.5625 118.664062 576.5625 126.1875 "/><path style="fill:none;stroke-width:10;stroke-linecap:butt;stroke-linejoin:miter;stroke:#d40019;stroke-opacity:1;stroke-miterlimit:4;" d="M 0.000396848 5.000723 L 674.630639 5.000723 " transform="matrix(0,-0.75,0.75,0,559.19477,678.097954)"/><path style="fill:none;stroke-width:10;stroke-linecap:butt;stroke-linejoin:miter;stroke:#006eab;stroke-opacity:1;stroke-miterlimit:4;" d="M -0.000536431 4.998274 L 470.3901 4.998274 " transform="matrix(0,0.749402,-0.749402,0,871.644154,172.883215)"/><path style="fill:none;stroke-width:7;stroke-linecap:butt;stroke-linejoin:miter;stroke:#000000;stroke-opacity:1;stroke-miterlimit:4;" d="M 3.499366 3.50092 L 381.250277 3.500271 " transform="matrix(0.749988,0.0042617,-0.0042617,0.749988,571.159969,497.476627)"/><path style="fill:none;stroke-width:7;stroke-linecap:round;stroke-linejoin:round;stroke:#000000;stroke-opacity:1;stroke-miterlimit:4;" d="M 17.50242 -7.000695 L 3.499366 3.50092 L 17.501957 13.999648 " transform="matrix(0.749988,0.0042617,-0.0042617,0.749988,571.159969,497.476627)"/><path style="fill:none;stroke-width:7;stroke-linecap:round;stroke-linejoin:round;stroke:#000000;stroke-opacity:1;stroke-miterlimit:4;" d="M 367.247685 -6.998458 L 381.250277 3.500271 L 367.247223 14.001885 " transform="matrix(0.749988,0.0042617,-0.0042617,0.749988,571.159969,497.476627)"/><path style=" stroke:none;fill-rule:nonzero;fill:#ffffff;fill-opacity:1;" d="M 718.027344 471.265625 L 722.269531 471.265625 C 730.605469 471.265625 737.367188 478.023438 737.367188 486.363281 L 737.367188 516.554688 C 737.367188 524.894531 730.605469 531.652344 722.269531 531.652344 L 718.027344 531.652344 C 709.6875 531.652344 702.929688 524.894531 702.929688 516.554688 L 702.929688 486.363281 C 702.929688 478.023438 709.6875 471.265625 718.027344 471.265625 Z M 718.027344 471.265625 "/><g style="fill:#000000;fill-opacity:1;"><g transform="translate(711.569274, 516.084138)"><path style="stroke:none" d="M 10.109375 -9.734375 L 8.53125 -21.640625 L 7.0625 -9.734375 Z M 0.46875 -0.078125 L 4.890625 -31.015625 L 4.9375 -31.375 L 11.921875 -31.375 L 11.984375 -31.015625 L 16.6875 -0.078125 L 16.75 0.4375 L 11.46875 0.4375 L 11.40625 0.046875 L 10.71875 -5.078125 L 6.5 -5.078125 L 5.890625 0.046875 L 5.84375 0.4375 L 0.40625 0.4375 Z M 0.46875 -0.078125 "/></g></g><path style="fill:none;stroke-width:10;stroke-linecap:butt;stroke-linejoin:miter;stroke:#000000;stroke-opacity:1;stroke-miterlimit:4;" d="M -0.00138495 4.999337 L 162.404873 4.999337 " transform="matrix(0,-0.748124,0.748124,0,1038.50597,603.557558)"/><path style="fill:none;stroke-width:7;stroke-linecap:butt;stroke-linejoin:miter;stroke:#000000;stroke-opacity:1;stroke-miterlimit:4;" d="M 3.500908 3.498816 L 613.700549 3.499488 " transform="matrix(0.749767,0.00265584,-0.00265584,0.749767,571.161769,583.441623)"/><path style="fill:none;stroke-width:7;stroke-linecap:round;stroke-linejoin:round;stroke:#000000;stroke-opacity:1;stroke-miterlimit:4;" d="M 17.499314 -7.001927 L 3.500908 3.498816 L 17.500766 13.999372 " transform="matrix(0.749767,0.00265584,-0.00265584,0.749767,571.161769,583.441623)"/><path style="fill:none;stroke-width:7;stroke-linecap:round;stroke-linejoin:round;stroke:#000000;stroke-opacity:1;stroke-miterlimit:4;" d="M 599.70069 -7.001068 L 613.700549 3.499488 L 599.702142 14.000231 " transform="matrix(0.749767,0.00265584,-0.00265584,0.749767,571.161769,583.441623)"/><path style=" stroke:none;fill-rule:nonzero;fill:#ffffff;fill-opacity:1;" d="M 800.210938 551.964844 L 804.734375 551.964844 C 812.949219 551.964844 819.609375 558.625 819.609375 566.839844 L 819.609375 596.589844 C 819.609375 604.804688 812.949219 611.464844 804.734375 611.464844 L 800.210938 611.464844 C 791.996094 611.464844 785.335938 604.804688 785.335938 596.589844 L 785.335938 566.839844 C 785.335938 558.625 791.996094 551.964844 800.210938 551.964844 Z M 800.210938 551.964844 "/><g style="fill:#000000;fill-opacity:1;"><g transform="translate(793.847486, 596.657558)"><path style="stroke:none" d="M 16 -23 C 16 -19.976562 15.269531 -17.941406 13.8125 -16.890625 C 15.664062 -15.804688 16.59375 -13.363281 16.59375 -9.5625 L 16.59375 -8.765625 C 16.570312 -5.554688 16 -3.234375 14.875 -1.796875 C 13.726562 -0.304688 11.878906 0.4375 9.328125 0.4375 L 2.0625 0.4375 L 2.0625 -31.375 L 9.1875 -31.375 C 11.625 -31.375 13.375 -30.789062 14.4375 -29.625 C 14.957031 -29.03125 15.34375 -28.257812 15.59375 -27.3125 C 15.851562 -26.363281 15.988281 -25.238281 16 -23.9375 Z M 7.640625 -4.09375 L 8.875 -4.09375 C 9.644531 -4.09375 10.171875 -4.347656 10.453125 -4.859375 C 10.796875 -5.429688 10.96875 -6.507812 10.96875 -8.09375 L 10.96875 -10.578125 C 10.96875 -11.328125 10.925781 -11.96875 10.84375 -12.5 C 10.769531 -13.039062 10.671875 -13.453125 10.546875 -13.734375 C 10.441406 -13.972656 10.28125 -14.148438 10.0625 -14.265625 C 9.84375 -14.390625 9.550781 -14.453125 9.1875 -14.453125 L 7.640625 -14.453125 Z M 7.640625 -18.859375 L 8.953125 -18.859375 C 9.566406 -18.859375 9.960938 -19.035156 10.140625 -19.390625 C 10.367188 -19.847656 10.484375 -20.84375 10.484375 -22.375 L 10.484375 -24.234375 C 10.484375 -24.460938 10.472656 -24.675781 10.453125 -24.875 C 10.429688 -25.082031 10.410156 -25.257812 10.390625 -25.40625 C 10.367188 -25.5625 10.335938 -25.703125 10.296875 -25.828125 C 10.265625 -25.960938 10.226562 -26.070312 10.1875 -26.15625 C 10.15625 -26.25 10.117188 -26.320312 10.078125 -26.375 C 9.847656 -26.664062 9.421875 -26.8125 8.796875 -26.8125 L 7.640625 -26.8125 Z M 7.640625 -18.859375 "/></g></g><path style="fill:none;stroke-width:10;stroke-linecap:butt;stroke-linejoin:miter;stroke:#000000;stroke-opacity:1;stroke-miterlimit:4;" d="M -0.00200644 4.999595 L 372.284467 4.999595 " transform="matrix(0,-0.749433,0.749433,0,1317.772668,759.146934)"/><path style="fill:none;stroke-width:7;stroke-linecap:butt;stroke-linejoin:miter;stroke:#000000;stroke-opacity:1;stroke-miterlimit:4;" d="M 3.501822 3.498699 L 983.195432 3.502128 " transform="matrix(0.749983,0.00498538,-0.00498538,0.749983,571.160665,661.307795)"/><path style="fill:none;stroke-width:7;stroke-linecap:round;stroke-linejoin:round;stroke:#000000;stroke-opacity:1;stroke-miterlimit:4;" d="M 17.500048 -7.000832 L 3.501822 3.498699 L 17.499017 13.99964 " transform="matrix(0.749983,0.00498538,-0.00498538,0.749983,571.160665,661.307795)"/><path style="fill:none;stroke-width:7;stroke-linecap:round;stroke-linejoin:round;stroke:#000000;stroke-opacity:1;stroke-miterlimit:4;" d="M 969.193028 -6.998778 L 983.195432 3.502128 L 969.191997 14.001694 " transform="matrix(0.749983,0.00498538,-0.00498538,0.749983,571.160665,661.307795)"/><path style=" stroke:none;fill-rule:nonzero;fill:#ffffff;fill-opacity:1;" d="M 940.246094 638.65625 L 944.230469 638.65625 C 952.566406 638.65625 959.328125 645.414062 959.328125 653.753906 L 959.328125 683.949219 C 959.328125 692.289062 952.566406 699.046875 944.230469 699.046875 L 940.246094 699.046875 C 931.90625 699.046875 925.148438 692.289062 925.148438 683.949219 L 925.148438 653.753906 C 925.148438 645.414062 931.90625 638.65625 940.246094 638.65625 Z M 940.246094 638.65625 "/><g style="fill:#000000;fill-opacity:1;"><g transform="translate(933.788575, 683.476618)"><path style="stroke:none" d="M 14.140625 -1.546875 C 12.984375 0.015625 11.1875 0.796875 8.75 0.796875 C 6.3125 0.796875 4.484375 -0.03125 3.265625 -1.6875 C 2.085938 -3.289062 1.5 -5.578125 1.5 -8.546875 L 1.5 -22.03125 C 1.5 -26.820312 2.785156 -29.832031 5.359375 -31.0625 C 6.304688 -31.507812 7.453125 -31.734375 8.796875 -31.734375 C 11.085938 -31.734375 12.816406 -30.992188 13.984375 -29.515625 C 15.160156 -28.035156 15.75 -25.882812 15.75 -23.0625 L 15.75 -18.375 L 10.3125 -18.375 L 10.3125 -22.765625 C 10.3125 -23.273438 10.296875 -23.742188 10.265625 -24.171875 C 10.242188 -24.609375 10.203125 -24.972656 10.140625 -25.265625 C 10.085938 -25.566406 10.023438 -25.816406 9.953125 -26.015625 C 9.847656 -26.285156 9.703125 -26.476562 9.515625 -26.59375 C 9.335938 -26.707031 9.085938 -26.765625 8.765625 -26.765625 C 8.554688 -26.765625 8.375 -26.734375 8.21875 -26.671875 C 8.070312 -26.617188 7.941406 -26.535156 7.828125 -26.421875 C 7.722656 -26.304688 7.628906 -26.148438 7.546875 -25.953125 C 7.265625 -25.273438 7.125 -24.21875 7.125 -22.78125 L 7.125 -8.328125 C 7.125 -6.722656 7.257812 -5.585938 7.53125 -4.921875 C 7.644531 -4.640625 7.796875 -4.4375 7.984375 -4.3125 C 8.171875 -4.1875 8.414062 -4.125 8.71875 -4.125 C 8.925781 -4.125 9.101562 -4.148438 9.25 -4.203125 C 9.394531 -4.265625 9.519531 -4.351562 9.625 -4.46875 C 9.738281 -4.59375 9.835938 -4.75 9.921875 -4.9375 C 10.046875 -5.269531 10.140625 -5.722656 10.203125 -6.296875 C 10.273438 -6.878906 10.3125 -7.578125 10.3125 -8.390625 L 10.3125 -13.25 L 15.828125 -13.25 L 15.828125 -8.4375 C 15.828125 -5.351562 15.265625 -3.054688 14.140625 -1.546875 Z M 14.140625 -1.546875 "/></g></g><path style="fill:none;stroke-width:8;stroke-linecap:butt;stroke-linejoin:miter;stroke:#d40019;stroke-opacity:1;stroke-miterlimit:4;" d="M -0.00242962 3.999393 L 23.534929 4.000729 " transform="matrix(0.527721,-0.532926,0.532926,0.527721,590.612089,93.692828)"/><path style="fill-rule:nonzero;fill:#d40019;fill-opacity:1;stroke-width:8;stroke-linecap:round;stroke-linejoin:round;stroke:#d40019;stroke-opacity:1;stroke-miterlimit:4;" d="M 25.534701 -7.99937 L 41.533242 3.99698 L 25.534789 15.998357 Z M 25.534701 -7.99937 " transform="matrix(0.527721,-0.532926,0.532926,0.527721,590.612089,93.692828)"/><path style="fill:none;stroke-width:8;stroke-linecap:butt;stroke-linejoin:miter;stroke:#d40019;stroke-opacity:1;stroke-miterlimit:4;" d="M -0.00124786 4.001088 L 39.262503 3.999661 " transform="matrix(0.522726,-0.531144,0.531144,0.522726,513.46534,173.009426)"/><path style=" stroke:none;fill-rule:nonzero;fill:#006eab;fill-opacity:1;" d="M 874.023438 126.9375 C 874.023438 127.339844 873.984375 127.738281 873.90625 128.132812 C 873.828125 128.527344 873.710938 128.910156 873.558594 129.28125 C 873.402344 129.652344 873.214844 130.007812 872.992188 130.339844 C 872.769531 130.675781 872.515625 130.984375 872.230469 131.269531 C 871.945312 131.554688 871.636719 131.808594 871.300781 132.03125 C 870.96875 132.253906 870.613281 132.441406 870.242188 132.597656 C 869.871094 132.75 869.488281 132.867188 869.09375 132.945312 C 868.699219 133.023438 868.300781 133.0625 867.898438 133.0625 C 867.496094 133.0625 867.097656 133.023438 866.703125 132.945312 C 866.308594 132.867188 865.925781 132.75 865.554688 132.597656 C 865.183594 132.441406 864.832031 132.253906 864.496094 132.03125 C 864.160156 131.808594 863.851562 131.554688 863.566406 131.269531 C 863.285156 130.984375 863.03125 130.675781 862.804688 130.339844 C 862.582031 130.007812 862.394531 129.652344 862.238281 129.28125 C 862.085938 128.910156 861.96875 128.527344 861.890625 128.132812 C 861.8125 127.738281 861.773438 127.339844 861.773438 126.9375 C 861.773438 126.535156 861.8125 126.136719 861.890625 125.742188 C 861.96875 125.347656 862.085938 124.964844 862.238281 124.59375 C 862.394531 124.222656 862.582031 123.867188 862.804688 123.535156 C 863.03125 123.199219 863.285156 122.890625 863.566406 122.605469 C 863.851562 122.320312 864.160156 122.066406 864.496094 121.84375 C 864.832031 121.621094 865.183594 121.433594 865.554688 121.277344 C 865.925781 121.125 866.308594 121.007812 866.703125 120.929688 C 867.097656 120.851562 867.496094 120.8125 867.898438 120.8125 C 868.300781 120.8125 868.699219 120.851562 869.09375 120.929688 C 869.488281 121.007812 869.871094 121.125 870.242188 121.277344 C 870.613281 121.433594 870.96875 121.621094 871.300781 121.84375 C 871.636719 122.066406 871.945312 122.320312 872.230469 122.605469 C 872.515625 122.890625 872.769531 123.199219 872.992188 123.535156 C 873.214844 123.867188 873.402344 124.222656 873.558594 124.59375 C 873.710938 124.964844 873.828125 125.347656 873.90625 125.742188 C 873.984375 126.136719 874.023438 126.535156 874.023438 126.9375 Z M 874.023438 126.9375 "/><path style=" stroke:none;fill-rule:nonzero;fill:#006eab;fill-opacity:1;" d="M 905.585938 136.125 L 899.25 136.125 C 898.863281 137.433594 898.394531 138.710938 897.851562 139.960938 C 897.304688 141.207031 896.683594 142.417969 895.984375 143.589844 C 895.289062 144.761719 894.523438 145.886719 893.6875 146.960938 C 892.847656 148.039062 891.949219 149.058594 890.984375 150.023438 C 890.019531 150.988281 889 151.886719 887.925781 152.722656 C 886.847656 153.5625 885.722656 154.328125 884.550781 155.023438 C 883.378906 155.722656 882.171875 156.34375 880.921875 156.886719 C 879.671875 157.433594 878.394531 157.898438 877.085938 158.285156 L 877.085938 164.625 C 878.804688 164.203125 880.484375 163.667969 882.128906 163.015625 C 883.769531 162.363281 885.363281 161.605469 886.902344 160.738281 C 888.445312 159.871094 889.917969 158.902344 891.328125 157.832031 C 892.734375 156.761719 894.0625 155.601562 895.316406 154.351562 C 896.566406 153.101562 897.722656 151.773438 898.792969 150.363281 C 899.863281 148.957031 900.832031 147.480469 901.699219 145.941406 C 902.566406 144.402344 903.328125 142.808594 903.976562 141.164062 C 904.628906 139.523438 905.164062 137.839844 905.585938 136.125 Z M 905.585938 136.125 "/><path style=" stroke:none;fill-rule:nonzero;fill:#006eab;fill-opacity:1;" d="M 877.085938 95.585938 C 878.394531 95.972656 879.671875 96.441406 880.921875 96.984375 C 882.171875 97.53125 883.378906 98.152344 884.550781 98.847656 C 885.722656 99.546875 886.847656 100.3125 887.925781 101.148438 C 889 101.988281 890.019531 102.886719 890.984375 103.851562 C 891.949219 104.816406 892.847656 105.835938 893.6875 106.910156 C 894.523438 107.988281 895.289062 109.109375 895.984375 110.28125 C 896.683594 111.453125 897.304688 112.664062 897.851562 113.914062 C 898.394531 115.164062 898.863281 116.441406 899.25 117.75 L 905.589844 117.75 C 905.164062 116.03125 904.628906 114.351562 903.976562 112.707031 C 903.328125 111.0625 902.566406 109.472656 901.699219 107.933594 C 900.832031 106.390625 899.863281 104.917969 898.792969 103.507812 C 897.722656 102.101562 896.566406 100.769531 895.316406 99.519531 C 894.0625 98.269531 892.734375 97.109375 891.328125 96.042969 C 889.917969 94.972656 888.445312 94.003906 886.902344 93.136719 C 885.363281 92.269531 883.769531 91.507812 882.128906 90.859375 C 880.484375 90.207031 878.804688 89.667969 877.085938 89.246094 Z M 877.085938 95.585938 "/><path style=" stroke:none;fill-rule:nonzero;fill:#006eab;fill-opacity:1;" d="M 836.550781 117.75 C 836.933594 116.441406 837.402344 115.164062 837.949219 113.914062 C 838.492188 112.664062 839.113281 111.453125 839.8125 110.28125 C 840.507812 109.109375 841.273438 107.988281 842.113281 106.910156 C 842.949219 105.835938 843.847656 104.816406 844.8125 103.851562 C 845.777344 102.886719 846.796875 101.984375 847.871094 101.148438 C 848.949219 100.3125 850.074219 99.546875 851.246094 98.847656 C 852.417969 98.152344 853.628906 97.53125 854.875 96.984375 C 856.125 96.441406 857.402344 95.972656 858.710938 95.585938 L 858.710938 89.246094 C 856.996094 89.667969 855.3125 90.207031 853.671875 90.859375 C 852.027344 91.507812 850.433594 92.269531 848.894531 93.136719 C 847.351562 94.003906 845.878906 94.972656 844.472656 96.042969 C 843.0625 97.109375 841.734375 98.269531 840.484375 99.519531 C 839.234375 100.769531 838.074219 102.101562 837.003906 103.507812 C 835.933594 104.917969 834.964844 106.390625 834.097656 107.933594 C 833.230469 109.472656 832.46875 111.0625 831.820312 112.707031 C 831.167969 114.351562 830.632812 116.03125 830.210938 117.75 Z M 836.550781 117.75 "/><path style=" stroke:none;fill-rule:nonzero;fill:#006eab;fill-opacity:1;" d="M 836.550781 136.125 L 830.210938 136.125 C 830.632812 137.839844 831.167969 139.523438 831.820312 141.164062 C 832.46875 142.808594 833.230469 144.402344 834.097656 145.941406 C 834.964844 147.480469 835.933594 148.957031 837.003906 150.363281 C 838.074219 151.773438 839.234375 153.101562 840.484375 154.351562 C 841.734375 155.601562 843.0625 156.761719 844.472656 157.832031 C 845.878906 158.902344 847.351562 159.871094 848.894531 160.738281 C 850.433594 161.605469 852.027344 162.363281 853.671875 163.015625 C 855.3125 163.667969 856.996094 164.203125 858.710938 164.625 L 858.710938 158.285156 C 857.402344 157.898438 856.125 157.433594 854.875 156.886719 C 853.628906 156.34375 852.417969 155.722656 851.246094 155.023438 C 850.074219 154.328125 848.949219 153.5625 847.871094 152.722656 C 846.796875 151.886719 845.777344 150.988281 844.8125 150.023438 C 843.847656 149.058594 842.949219 148.039062 842.113281 146.960938 C 841.273438 145.886719 840.507812 144.761719 839.8125 143.589844 C 839.113281 142.417969 838.492188 141.207031 837.949219 139.960938 C 837.402344 138.710938 836.933594 137.433594 836.550781 136.125 Z M 836.550781 136.125 "/><path style=" stroke:none;fill-rule:nonzero;fill:#006eab;fill-opacity:1;" d="M 865.402344 81 L 870.398438 81 C 870.605469 81 870.808594 81.039062 871.003906 81.121094 C 871.199219 81.199219 871.367188 81.316406 871.519531 81.464844 C 871.667969 81.613281 871.78125 81.785156 871.863281 81.980469 C 871.941406 82.171875 871.980469 82.375 871.980469 82.585938 L 871.980469 106.984375 C 871.980469 107.195312 871.941406 107.398438 871.863281 107.59375 C 871.78125 107.785156 871.667969 107.957031 871.519531 108.105469 C 871.367188 108.253906 871.199219 108.371094 871.003906 108.449219 C 870.808594 108.53125 870.605469 108.570312 870.398438 108.570312 L 865.402344 108.570312 C 865.191406 108.570312 864.988281 108.53125 864.792969 108.449219 C 864.601562 108.371094 864.429688 108.253906 864.28125 108.105469 C 864.132812 107.957031 864.015625 107.785156 863.9375 107.59375 C 863.855469 107.398438 863.816406 107.195312 863.816406 106.984375 L 863.816406 82.585938 C 863.816406 82.375 863.855469 82.171875 863.9375 81.980469 C 864.015625 81.785156 864.132812 81.613281 864.28125 81.464844 C 864.429688 81.316406 864.601562 81.199219 864.792969 81.121094 C 864.988281 81.039062 865.191406 81 865.402344 81 Z M 865.402344 81 "/><path style=" stroke:none;fill-rule:nonzero;fill:#006eab;fill-opacity:1;" d="M 887.851562 122.855469 L 912.25 122.855469 C 912.460938 122.855469 912.664062 122.894531 912.859375 122.976562 C 913.050781 123.054688 913.222656 123.167969 913.371094 123.320312 C 913.519531 123.46875 913.636719 123.636719 913.714844 123.832031 C 913.796875 124.027344 913.835938 124.230469 913.835938 124.441406 L 913.835938 129.433594 C 913.835938 129.644531 913.796875 129.847656 913.714844 130.042969 C 913.636719 130.238281 913.519531 130.40625 913.371094 130.554688 C 913.222656 130.707031 913.050781 130.820312 912.859375 130.898438 C 912.664062 130.980469 912.460938 131.019531 912.25 131.019531 L 887.851562 131.019531 C 887.640625 131.019531 887.4375 130.980469 887.242188 130.898438 C 887.050781 130.820312 886.878906 130.707031 886.730469 130.554688 C 886.582031 130.40625 886.464844 130.238281 886.386719 130.042969 C 886.304688 129.847656 886.265625 129.644531 886.265625 129.433594 L 886.265625 124.441406 C 886.265625 124.230469 886.304688 124.027344 886.386719 123.832031 C 886.464844 123.636719 886.582031 123.46875 886.730469 123.320312 C 886.878906 123.167969 887.050781 123.054688 887.242188 122.976562 C 887.4375 122.894531 887.640625 122.855469 887.851562 122.855469 Z M 887.851562 122.855469 "/><path style=" stroke:none;fill-rule:nonzero;fill:#006eab;fill-opacity:1;" d="M 865.402344 145.304688 L 870.398438 145.304688 C 870.605469 145.304688 870.808594 145.34375 871.003906 145.425781 C 871.199219 145.503906 871.367188 145.621094 871.519531 145.769531 C 871.667969 145.917969 871.78125 146.089844 871.863281 146.28125 C 871.941406 146.476562 871.980469 146.679688 871.980469 146.890625 L 871.980469 171.289062 C 871.980469 171.5 871.941406 171.703125 871.863281 171.894531 C 871.78125 172.089844 871.667969 172.261719 871.519531 172.410156 C 871.367188 172.558594 871.199219 172.675781 871.003906 172.753906 C 870.808594 172.835938 870.605469 172.875 870.398438 172.875 L 865.402344 172.875 C 865.191406 172.875 864.988281 172.835938 864.792969 172.753906 C 864.601562 172.675781 864.429688 172.558594 864.28125 172.410156 C 864.132812 172.261719 864.015625 172.089844 863.9375 171.894531 C 863.855469 171.703125 863.816406 171.5 863.816406 171.289062 L 863.816406 146.890625 C 863.816406 146.679688 863.855469 146.476562 863.9375 146.28125 C 864.015625 146.089844 864.132812 145.917969 864.28125 145.769531 C 864.429688 145.621094 864.601562 145.503906 864.792969 145.425781 C 864.988281 145.34375 865.191406 145.304688 865.402344 145.304688 Z M 865.402344 145.304688 "/><g clip-rule="nonzero" clip-path="url(#8691f3e57f)"><path style=" stroke:none;fill-rule:nonzero;fill:#006eab;fill-opacity:1;" d="M 823.546875 122.855469 L 847.945312 122.855469 C 848.15625 122.855469 848.359375 122.894531 848.554688 122.976562 C 848.746094 123.054688 848.917969 123.167969 849.066406 123.320312 C 849.214844 123.46875 849.332031 123.636719 849.410156 123.832031 C 849.492188 124.027344 849.53125 124.230469 849.53125 124.441406 L 849.53125 129.433594 C 849.53125 129.644531 849.492188 129.847656 849.410156 130.042969 C 849.332031 130.238281 849.214844 130.40625 849.066406 130.554688 C 848.917969 130.707031 848.746094 130.820312 848.554688 130.898438 C 848.359375 130.980469 848.15625 131.019531 847.945312 131.019531 L 823.546875 131.019531 C 823.335938 131.019531 823.132812 130.980469 822.941406 130.898438 C 822.746094 130.820312 822.574219 130.707031 822.425781 130.554688 C 822.277344 130.40625 822.164062 130.238281 822.082031 130.042969 C 822 129.847656 821.960938 129.644531 821.960938 129.433594 L 821.960938 124.441406 C 821.960938 124.230469 822 124.027344 822.082031 123.832031 C 822.164062 123.636719 822.277344 123.46875 822.425781 123.320312 C 822.574219 123.167969 822.746094 123.054688 822.941406 122.976562 C 823.132812 122.894531 823.335938 122.855469 823.546875 122.855469 Z M 823.546875 122.855469 "/></g><path style="fill:none;stroke-width:8;stroke-linecap:butt;stroke-linejoin:miter;stroke:#006eab;stroke-opacity:1;stroke-miterlimit:4;" d="M -0.0000283537 4.002019 L 31.606173 4.002019 " transform="matrix(0.53033,-0.53033,0.53033,0.53033,887.936218,97.842437)"/><path style="fill-rule:nonzero;fill:#006eab;fill-opacity:1;stroke-width:8;stroke-linecap:round;stroke-linejoin:round;stroke:#006eab;stroke-opacity:1;stroke-miterlimit:4;" d="M 33.60596 -8.000382 L 49.604251 3.998337 L 33.602277 16.000738 Z M 33.60596 -8.000382 " transform="matrix(0.53033,-0.53033,0.53033,0.53033,887.936218,97.842437)"/><path style="fill:none;stroke-width:8;stroke-linecap:butt;stroke-linejoin:miter;stroke:#006eab;stroke-opacity:1;stroke-miterlimit:4;" d="M 0.000295558 4.003014 L 43.664141 4.003014 " transform="matrix(0.53033,-0.53033,0.53033,0.53033,815.197237,172.994426)"/><g clip-rule="nonzero" clip-path="url(#1496b35e3f)"><path style=" stroke:none;fill-rule:nonzero;fill:#d40019;fill-opacity:1;" d="M 303.195312 250.21875 C 303.195312 275.589844 282.628906 296.15625 257.261719 296.15625 C 231.890625 296.15625 211.324219 275.589844 211.324219 250.21875 C 211.324219 224.851562 231.890625 204.285156 257.261719 204.285156 C 282.628906 204.285156 303.195312 224.851562 303.195312 250.21875 "/></g><path style=" stroke:none;fill-rule:nonzero;fill:#ffffff;fill-opacity:1;" d="M 295.078125 250.21875 C 295.078125 271.105469 278.148438 288.039062 257.261719 288.039062 C 236.375 288.039062 219.441406 271.105469 219.441406 250.21875 C 219.441406 229.335938 236.375 212.402344 257.261719 212.402344 C 278.148438 212.402344 295.078125 229.335938 295.078125 250.21875 "/><path style=" stroke:none;fill-rule:nonzero;fill:#d40019;fill-opacity:1;" d="M 287.785156 250.21875 C 287.785156 267.078125 274.117188 280.746094 257.261719 280.746094 C 240.402344 280.746094 226.734375 267.078125 226.734375 250.21875 C 226.734375 233.363281 240.402344 219.695312 257.261719 219.695312 C 274.117188 219.695312 287.785156 233.363281 287.785156 250.21875 "/><path style=" stroke:none;fill-rule:nonzero;fill:#ffffff;fill-opacity:1;" d="M 279.628906 250.21875 C 279.628906 262.574219 269.617188 272.589844 257.261719 272.589844 C 244.90625 272.589844 234.890625 262.574219 234.890625 250.21875 C 234.890625 237.867188 244.90625 227.851562 257.261719 227.851562 C 269.617188 227.851562 279.628906 237.867188 279.628906 250.21875 "/><path style=" stroke:none;fill-rule:nonzero;fill:#d40019;fill-opacity:1;" d="M 270.882812 250.21875 C 270.882812 257.742188 264.785156 263.84375 257.261719 263.84375 C 249.738281 263.84375 243.636719 257.742188 243.636719 250.21875 C 243.636719 242.699219 249.738281 236.597656 257.261719 236.597656 C 264.785156 236.597656 270.882812 242.699219 270.882812 250.21875 "/><g style="fill:#fefefe;fill-opacity:1;"><g transform="translate(146.516835, 378.955782)"><path style="stroke:none" d="M 2.46875 -12.5625 L 2.46875 -16.5625 L 8.90625 -16.5625 L 8.90625 -12.0625 C 8.90625 -9.570312 9.117188 -7.820312 9.546875 -6.8125 C 9.972656 -5.8125 10.769531 -5.3125 11.9375 -5.3125 C 13.101562 -5.3125 13.875 -5.722656 14.25 -6.546875 C 14.632812 -7.378906 14.828125 -8.734375 14.828125 -10.609375 C 14.828125 -12.492188 14.488281 -14.132812 13.8125 -15.53125 C 13.132812 -16.925781 12.0625 -18.382812 10.59375 -19.90625 L 7.28125 -23.3125 C 5.75 -24.914062 4.550781 -26.582031 3.6875 -28.3125 C 2.832031 -30.039062 2.40625 -32.035156 2.40625 -34.296875 C 2.40625 -37.992188 3.113281 -40.738281 4.53125 -42.53125 C 5.957031 -44.320312 8.40625 -45.21875 11.875 -45.21875 C 15.351562 -45.21875 17.703125 -44.171875 18.921875 -42.078125 C 20.148438 -39.992188 20.765625 -36.945312 20.765625 -32.9375 L 20.765625 -30.171875 L 14.5 -30.171875 L 14.5 -33.359375 C 14.5 -35.523438 14.3125 -37.078125 13.9375 -38.015625 C 13.5625 -38.960938 12.84375 -39.4375 11.78125 -39.4375 C 10.726562 -39.4375 9.96875 -39.078125 9.5 -38.359375 C 9.039062 -37.648438 8.8125 -36.582031 8.8125 -35.15625 C 8.8125 -33.738281 9.046875 -32.609375 9.515625 -31.765625 C 9.992188 -30.921875 10.851562 -29.835938 12.09375 -28.515625 L 15.765625 -24.53125 C 17.609375 -22.53125 19 -20.503906 19.9375 -18.453125 C 20.882812 -16.410156 21.359375 -14.175781 21.359375 -11.75 C 21.359375 -7.570312 20.65625 -4.484375 19.25 -2.484375 C 17.84375 -0.484375 15.382812 0.515625 11.875 0.515625 C 8.363281 0.515625 5.914062 -0.597656 4.53125 -2.828125 C 3.15625 -5.054688 2.46875 -8.300781 2.46875 -12.5625 Z M 2.46875 -12.5625 "/></g></g><g style="fill:#fefefe;fill-opacity:1;"><g transform="translate(169.493629, 378.955782)"><path style="stroke:none" d="M 5.640625 0 L 5.640625 -38.796875 L 0.40625 -38.796875 L 0.40625 -44.6875 L 17.4375 -44.6875 L 17.4375 -38.796875 L 12.421875 -38.796875 L 12.421875 0 Z M 5.640625 0 "/></g></g><g style="fill:#fefefe;fill-opacity:1;"><g transform="translate(187.341902, 378.955782)"><path style="stroke:none" d="M 15.34375 -13.4375 L 12.34375 -35.875 L 12.234375 -35.875 L 9.5 -13.4375 Z M 1.328125 0 L 7.6875 -44.6875 L 16.6875 -44.6875 L 23.46875 0 L 17.109375 0 L 16.046875 -7.96875 L 8.84375 -7.96875 L 7.875 0 Z M 1.328125 0 "/></g></g><g style="fill:#fefefe;fill-opacity:1;"><g transform="translate(211.638887, 378.955782)"><path style="stroke:none" d="M 5.640625 0 L 5.640625 -38.796875 L 0.40625 -38.796875 L 0.40625 -44.6875 L 17.4375 -44.6875 L 17.4375 -38.796875 L 12.421875 -38.796875 L 12.421875 0 Z M 5.640625 0 "/></g></g><g style="fill:#fefefe;fill-opacity:1;"><g transform="translate(229.48716, 378.955782)"><path style="stroke:none" d="M 3.609375 0 L 3.609375 -44.6875 L 10.40625 -44.6875 L 10.40625 0 Z M 3.609375 0 "/></g></g><g style="fill:#fefefe;fill-opacity:1;"><g transform="translate(243.501732, 378.955782)"><path style="stroke:none" d="M 9.65625 -12.421875 C 9.65625 -9.796875 9.851562 -7.96875 10.25 -6.9375 C 10.644531 -5.90625 11.457031 -5.390625 12.6875 -5.390625 C 13.925781 -5.390625 14.738281 -5.914062 15.125 -6.96875 C 15.519531 -8.03125 15.71875 -9.847656 15.71875 -12.421875 L 15.71875 -33.234375 C 15.71875 -35.347656 15.519531 -36.890625 15.125 -37.859375 C 14.726562 -38.835938 13.945312 -39.328125 12.78125 -39.328125 C 11.625 -39.328125 10.8125 -38.835938 10.34375 -37.859375 C 9.882812 -36.890625 9.65625 -35.359375 9.65625 -33.265625 Z M 22.546875 -12.5 C 22.546875 -8.125 21.765625 -4.859375 20.203125 -2.703125 C 18.648438 -0.554688 16.160156 0.515625 12.734375 0.515625 C 9.304688 0.515625 6.789062 -0.5625 5.1875 -2.71875 C 3.59375 -4.882812 2.796875 -8.144531 2.796875 -12.5 L 2.796875 -32.9375 C 2.796875 -41.125 6.140625 -45.21875 12.828125 -45.21875 C 16.273438 -45.21875 18.753906 -44.175781 20.265625 -42.09375 C 21.785156 -40.007812 22.546875 -36.957031 22.546875 -32.9375 Z M 22.546875 -12.5 "/></g></g><g style="fill:#fefefe;fill-opacity:1;"><g transform="translate(268.865065, 378.955782)"><path style="stroke:none" d="M 3.359375 0 L 3.359375 -44.6875 L 8.6875 -44.6875 L 18.15625 -17.875 L 17.671875 -30.0625 L 17.671875 -44.6875 L 23.796875 -44.6875 L 23.796875 0 L 18.96875 0 L 9.25 -27.75 L 9.625 -16.015625 L 9.625 0 Z M 3.359375 0 "/></g></g><g style="fill:#fefefe;fill-opacity:1;"><g transform="translate(296.005609, 378.955782)"><path style="stroke:none" d="M 15.34375 -13.4375 L 12.34375 -35.875 L 12.234375 -35.875 L 9.5 -13.4375 Z M 1.328125 0 L 7.6875 -44.6875 L 16.6875 -44.6875 L 23.46875 0 L 17.109375 0 L 16.046875 -7.96875 L 8.84375 -7.96875 L 7.875 0 Z M 1.328125 0 "/></g></g><g style="fill:#fefefe;fill-opacity:1;"><g transform="translate(320.784996, 378.955782)"><path style="stroke:none" d="M 12.34375 -21 L 10.15625 -21.09375 L 10.15625 0 L 3.359375 0 L 3.359375 -44.6875 L 14.59375 -44.6875 C 16.9375 -44.6875 18.679688 -44.21875 19.828125 -43.28125 C 20.984375 -42.34375 21.742188 -41.03125 22.109375 -39.34375 C 22.472656 -37.65625 22.65625 -35.453125 22.65625 -32.734375 C 22.65625 -30.023438 22.363281 -27.957031 21.78125 -26.53125 C 21.207031 -25.113281 20.144531 -24.160156 18.59375 -23.671875 C 20.125 -23.398438 21.191406 -22.359375 21.796875 -20.546875 C 22.410156 -18.734375 22.71875 -14.960938 22.71875 -9.234375 C 22.71875 -3.503906 22.804688 -0.425781 22.984375 0 L 16.171875 0 C 16.003906 -0.34375 15.921875 -5.679688 15.921875 -16.015625 C 15.921875 -18.003906 15.679688 -19.320312 15.203125 -19.96875 C 14.734375 -20.625 13.78125 -20.96875 12.34375 -21 Z M 10.1875 -26.375 L 12.90625 -26.375 C 13.757812 -26.375 14.394531 -26.566406 14.8125 -26.953125 C 15.226562 -27.347656 15.515625 -28.019531 15.671875 -28.96875 C 15.835938 -29.914062 15.921875 -31.363281 15.921875 -33.3125 L 15.921875 -33.59375 C 15.921875 -36.007812 15.71875 -37.585938 15.3125 -38.328125 C 14.90625 -39.078125 13.96875 -39.453125 12.5 -39.453125 L 10.1875 -39.453125 Z M 10.1875 -26.375 "/></g></g><g style="fill:#fefefe;fill-opacity:1;"><g transform="translate(346.122935, 378.955782)"><path style="stroke:none" d="M 7.71875 0 L 7.71875 -17.84375 L 0.234375 -44.6875 L 6.734375 -44.6875 L 11.140625 -27.984375 L 11.25 -27.984375 L 15.1875 -44.6875 L 21.65625 -44.6875 L 14.53125 -17.84375 L 14.53125 0 Z M 7.71875 0 "/></g></g><g style="fill:#fefefe;fill-opacity:1;"><g transform="translate(1107.867841, 378.955782)"><path style="stroke:none" d="M 3.359375 0 L 3.359375 -44.6875 L 11.8125 -44.6875 L 18.15625 -12.03125 L 24.125 -44.6875 L 32.625 -44.6875 L 32.625 0 L 26.5625 0 L 26.5625 -16.65625 L 26.8125 -31.9375 L 20.796875 -0.203125 L 15.390625 -0.203125 L 9.109375 -31.9375 L 9.375 -16.65625 L 9.375 0 Z M 3.359375 0 "/></g></g><g style="fill:#fefefe;fill-opacity:1;"><g transform="translate(1143.86904, 378.955782)"><path style="stroke:none" d="M 9.65625 -12.421875 C 9.65625 -9.796875 9.851562 -7.96875 10.25 -6.9375 C 10.644531 -5.90625 11.457031 -5.390625 12.6875 -5.390625 C 13.925781 -5.390625 14.738281 -5.914062 15.125 -6.96875 C 15.519531 -8.03125 15.71875 -9.847656 15.71875 -12.421875 L 15.71875 -33.234375 C 15.71875 -35.347656 15.519531 -36.890625 15.125 -37.859375 C 14.726562 -38.835938 13.945312 -39.328125 12.78125 -39.328125 C 11.625 -39.328125 10.8125 -38.835938 10.34375 -37.859375 C 9.882812 -36.890625 9.65625 -35.359375 9.65625 -33.265625 Z M 22.546875 -12.5 C 22.546875 -8.125 21.765625 -4.859375 20.203125 -2.703125 C 18.648438 -0.554688 16.160156 0.515625 12.734375 0.515625 C 9.304688 0.515625 6.789062 -0.5625 5.1875 -2.71875 C 3.59375 -4.882812 2.796875 -8.144531 2.796875 -12.5 L 2.796875 -32.9375 C 2.796875 -41.125 6.140625 -45.21875 12.828125 -45.21875 C 16.273438 -45.21875 18.753906 -44.175781 20.265625 -42.09375 C 21.785156 -40.007812 22.546875 -36.957031 22.546875 -32.9375 Z M 22.546875 -12.5 "/></g></g><g style="fill:#fefefe;fill-opacity:1;"><g transform="translate(1169.232374, 378.955782)"><path style="stroke:none" d="M 8.359375 0 L 1.421875 -44.6875 L 7.890625 -44.6875 L 10.8125 -24.5 L 12.625 -10.28125 L 12.796875 -10.28125 L 14.34375 -24.5 L 16.78125 -44.6875 L 23.125 -44.6875 L 16.765625 0 Z M 8.359375 0 "/></g></g><g style="fill:#fefefe;fill-opacity:1;"><g transform="translate(1192.767686, 378.955782)"><path style="stroke:none" d="M 15.34375 -13.4375 L 12.34375 -35.875 L 12.234375 -35.875 L 9.5 -13.4375 Z M 1.328125 0 L 7.6875 -44.6875 L 16.6875 -44.6875 L 23.46875 0 L 17.109375 0 L 16.046875 -7.96875 L 8.84375 -7.96875 L 7.875 0 Z M 1.328125 0 "/></g></g><g style="fill:#fefefe;fill-opacity:1;"><g transform="translate(1217.547073, 378.955782)"><path style="stroke:none" d="M 22.46875 -33.21875 C 22.46875 -28.40625 21.164062 -25.445312 18.5625 -24.34375 C 21.738281 -23.28125 23.328125 -19.769531 23.328125 -13.8125 L 23.328125 -12.671875 C 23.296875 -8.179688 22.515625 -4.945312 20.984375 -2.96875 C 19.453125 -0.988281 16.953125 0 13.484375 0 L 3.609375 0 L 3.609375 -44.6875 L 13.28125 -44.6875 C 16.613281 -44.6875 18.972656 -43.910156 20.359375 -42.359375 C 21.753906 -40.816406 22.457031 -38.222656 22.46875 -34.578125 Z M 10.40625 -5.28125 L 12.828125 -5.28125 C 14.179688 -5.28125 15.128906 -5.742188 15.671875 -6.671875 C 16.210938 -7.609375 16.484375 -9.28125 16.484375 -11.6875 L 16.484375 -15.28125 C 16.484375 -17.550781 16.257812 -19.15625 15.8125 -20.09375 C 15.375 -21.03125 14.53125 -21.5 13.28125 -21.5 L 10.40625 -21.5 Z M 10.40625 -26.609375 L 12.921875 -26.609375 C 14.085938 -26.609375 14.851562 -26.976562 15.21875 -27.71875 C 15.582031 -28.46875 15.765625 -30.003906 15.765625 -32.328125 L 15.765625 -35.015625 C 15.753906 -36.742188 15.519531 -37.898438 15.0625 -38.484375 C 14.601562 -39.066406 13.816406 -39.359375 12.703125 -39.359375 L 10.40625 -39.359375 Z M 10.40625 -26.609375 "/></g></g><g style="fill:#fefefe;fill-opacity:1;"><g transform="translate(1242.834235, 378.955782)"><path style="stroke:none" d="M 3.359375 0 L 3.359375 -44.6875 L 10.15625 -44.6875 L 10.15625 -5.796875 L 18.765625 -5.796875 L 18.765625 0 Z M 3.359375 0 "/></g></g><g style="fill:#fefefe;fill-opacity:1;"><g transform="translate(1262.155053, 378.955782)"><path style="stroke:none" d="M 3.359375 0 L 3.359375 -44.6875 L 18.328125 -44.6875 L 18.328125 -38.828125 L 10.15625 -38.828125 L 10.15625 -25.828125 L 17.921875 -25.828125 L 17.921875 -20.078125 L 10.15625 -20.078125 L 10.15625 -5.859375 L 18.640625 -5.859375 L 18.640625 0 Z M 3.359375 0 "/></g></g><path style=" stroke:none;fill-rule:nonzero;fill:#fefefe;fill-opacity:1;" d="M 1201.503906 250.21875 C 1201.503906 250.621094 1201.464844 251.019531 1201.386719 251.414062 C 1201.308594 251.808594 1201.191406 252.191406 1201.039062 252.5625 C 1200.882812 252.933594 1200.695312 253.289062 1200.472656 253.621094 C 1200.25 253.957031 1199.996094 254.265625 1199.710938 254.550781 C 1199.425781 254.835938 1199.117188 255.089844 1198.78125 255.3125 C 1198.449219 255.535156 1198.09375 255.722656 1197.722656 255.878906 C 1197.351562 256.03125 1196.96875 256.148438 1196.574219 256.226562 C 1196.179688 256.304688 1195.78125 256.34375 1195.378906 256.34375 C 1194.976562 256.34375 1194.578125 256.304688 1194.183594 256.226562 C 1193.789062 256.148438 1193.40625 256.03125 1193.035156 255.878906 C 1192.664062 255.722656 1192.3125 255.535156 1191.976562 255.3125 C 1191.640625 255.089844 1191.332031 254.835938 1191.046875 254.550781 C 1190.765625 254.265625 1190.511719 253.957031 1190.285156 253.621094 C 1190.0625 253.289062 1189.875 252.933594 1189.71875 252.5625 C 1189.566406 252.191406 1189.449219 251.808594 1189.371094 251.414062 C 1189.292969 251.019531 1189.253906 250.621094 1189.253906 250.21875 C 1189.253906 249.816406 1189.292969 249.417969 1189.371094 249.023438 C 1189.449219 248.628906 1189.566406 248.246094 1189.71875 247.875 C 1189.875 247.503906 1190.0625 247.152344 1190.285156 246.816406 C 1190.511719 246.480469 1190.765625 246.171875 1191.046875 245.886719 C 1191.332031 245.605469 1191.640625 245.351562 1191.976562 245.125 C 1192.3125 244.902344 1192.664062 244.714844 1193.035156 244.558594 C 1193.40625 244.40625 1193.789062 244.289062 1194.183594 244.210938 C 1194.578125 244.132812 1194.976562 244.09375 1195.378906 244.09375 C 1195.78125 244.09375 1196.179688 244.132812 1196.574219 244.210938 C 1196.96875 244.289062 1197.351562 244.40625 1197.722656 244.558594 C 1198.09375 244.714844 1198.449219 244.902344 1198.78125 245.125 C 1199.117188 245.351562 1199.425781 245.605469 1199.710938 245.886719 C 1199.996094 246.171875 1200.25 246.480469 1200.472656 246.816406 C 1200.695312 247.152344 1200.882812 247.503906 1201.039062 247.875 C 1201.191406 248.246094 1201.308594 248.628906 1201.386719 249.023438 C 1201.464844 249.417969 1201.503906 249.816406 1201.503906 250.21875 Z M 1201.503906 250.21875 "/><path style=" stroke:none;fill-rule:nonzero;fill:#fefefe;fill-opacity:1;" d="M 1233.070312 259.40625 L 1226.730469 259.40625 C 1226.34375 260.714844 1225.875 261.992188 1225.332031 263.242188 C 1224.785156 264.488281 1224.164062 265.699219 1223.46875 266.871094 C 1222.769531 268.042969 1222.003906 269.167969 1221.167969 270.246094 C 1220.328125 271.320312 1219.429688 272.339844 1218.464844 273.304688 C 1217.5 274.269531 1216.480469 275.167969 1215.40625 276.003906 C 1214.328125 276.84375 1213.203125 277.609375 1212.035156 278.304688 C 1210.863281 279.003906 1209.652344 279.625 1208.402344 280.167969 C 1207.152344 280.714844 1205.875 281.183594 1204.566406 281.566406 L 1204.566406 287.90625 C 1206.285156 287.484375 1207.964844 286.949219 1209.609375 286.296875 C 1211.253906 285.648438 1212.84375 284.886719 1214.382812 284.019531 C 1215.925781 283.152344 1217.398438 282.183594 1218.808594 281.113281 C 1220.214844 280.042969 1221.546875 278.882812 1222.796875 277.632812 C 1224.046875 276.382812 1225.203125 275.054688 1226.273438 273.644531 C 1227.34375 272.238281 1228.3125 270.765625 1229.179688 269.222656 C 1230.046875 267.683594 1230.808594 266.089844 1231.457031 264.445312 C 1232.109375 262.804688 1232.644531 261.121094 1233.070312 259.40625 Z M 1233.070312 259.40625 "/><path style=" stroke:none;fill-rule:nonzero;fill:#fefefe;fill-opacity:1;" d="M 1204.566406 218.867188 C 1205.875 219.253906 1207.152344 219.722656 1208.402344 220.265625 C 1209.652344 220.8125 1210.863281 221.433594 1212.035156 222.128906 C 1213.203125 222.828125 1214.328125 223.59375 1215.40625 224.429688 C 1216.480469 225.269531 1217.5 226.167969 1218.464844 227.132812 C 1219.429688 228.097656 1220.328125 229.117188 1221.167969 230.191406 C 1222.003906 231.269531 1222.769531 232.394531 1223.46875 233.566406 C 1224.164062 234.738281 1224.785156 235.945312 1225.332031 237.195312 C 1225.875 238.445312 1226.34375 239.722656 1226.730469 241.03125 L 1233.070312 241.03125 C 1232.648438 239.3125 1232.109375 237.632812 1231.457031 235.988281 C 1230.808594 234.347656 1230.046875 232.753906 1229.179688 231.214844 C 1228.3125 229.671875 1227.34375 228.199219 1226.273438 226.789062 C 1225.203125 225.382812 1224.046875 224.054688 1222.796875 222.800781 C 1221.546875 221.550781 1220.214844 220.394531 1218.808594 219.324219 C 1217.398438 218.253906 1215.925781 217.285156 1214.382812 216.417969 C 1212.84375 215.550781 1211.253906 214.789062 1209.609375 214.140625 C 1207.964844 213.488281 1206.285156 212.953125 1204.566406 212.527344 Z M 1204.566406 218.867188 "/><path style=" stroke:none;fill-rule:nonzero;fill:#fefefe;fill-opacity:1;" d="M 1164.03125 241.03125 C 1164.417969 239.722656 1164.882812 238.445312 1165.429688 237.195312 C 1165.972656 235.945312 1166.59375 234.734375 1167.292969 233.566406 C 1167.988281 232.394531 1168.753906 231.269531 1169.59375 230.191406 C 1170.429688 229.117188 1171.328125 228.097656 1172.292969 227.132812 C 1173.257812 226.167969 1174.277344 225.269531 1175.355469 224.429688 C 1176.429688 223.59375 1177.554688 222.828125 1178.726562 222.128906 C 1179.898438 221.433594 1181.109375 220.8125 1182.355469 220.265625 C 1183.605469 219.722656 1184.882812 219.253906 1186.191406 218.867188 L 1186.191406 212.527344 C 1184.476562 212.953125 1182.792969 213.488281 1181.152344 214.140625 C 1179.507812 214.789062 1177.914062 215.550781 1176.375 216.417969 C 1174.835938 217.285156 1173.359375 218.253906 1171.953125 219.324219 C 1170.542969 220.394531 1169.214844 221.550781 1167.964844 222.800781 C 1166.714844 224.054688 1165.554688 225.382812 1164.484375 226.789062 C 1163.414062 228.199219 1162.445312 229.671875 1161.578125 231.214844 C 1160.710938 232.753906 1159.953125 234.347656 1159.300781 235.988281 C 1158.648438 237.632812 1158.113281 239.3125 1157.691406 241.03125 Z M 1164.03125 241.03125 "/><path style=" stroke:none;fill-rule:nonzero;fill:#fefefe;fill-opacity:1;" d="M 1164.03125 259.40625 L 1157.691406 259.40625 C 1158.113281 261.121094 1158.648438 262.804688 1159.300781 264.445312 C 1159.953125 266.089844 1160.710938 267.683594 1161.578125 269.222656 C 1162.445312 270.765625 1163.414062 272.238281 1164.484375 273.644531 C 1165.554688 275.054688 1166.714844 276.382812 1167.964844 277.632812 C 1169.214844 278.882812 1170.542969 280.042969 1171.953125 281.113281 C 1173.359375 282.183594 1174.835938 283.152344 1176.375 284.019531 C 1177.914062 284.886719 1179.507812 285.648438 1181.152344 286.296875 C 1182.792969 286.949219 1184.476562 287.484375 1186.191406 287.90625 L 1186.191406 281.566406 C 1184.882812 281.183594 1183.605469 280.714844 1182.355469 280.167969 C 1181.109375 279.625 1179.898438 279.003906 1178.726562 278.304688 C 1177.554688 277.609375 1176.429688 276.84375 1175.355469 276.003906 C 1174.277344 275.167969 1173.257812 274.269531 1172.292969 273.304688 C 1171.328125 272.339844 1170.429688 271.320312 1169.59375 270.246094 C 1168.753906 269.167969 1167.988281 268.042969 1167.292969 266.871094 C 1166.59375 265.699219 1165.972656 264.488281 1165.429688 263.242188 C 1164.882812 261.992188 1164.417969 260.714844 1164.03125 259.40625 Z M 1164.03125 259.40625 "/><g clip-rule="nonzero" clip-path="url(#5816e2f13e)"><path style=" stroke:none;fill-rule:nonzero;fill:#fefefe;fill-opacity:1;" d="M 1192.882812 204.28125 L 1197.878906 204.28125 C 1198.085938 204.28125 1198.289062 204.320312 1198.484375 204.402344 C 1198.679688 204.484375 1198.851562 204.597656 1199 204.746094 C 1199.148438 204.894531 1199.261719 205.066406 1199.34375 205.261719 C 1199.421875 205.453125 1199.460938 205.65625 1199.460938 205.867188 L 1199.460938 230.265625 C 1199.460938 230.476562 1199.421875 230.679688 1199.34375 230.875 C 1199.261719 231.066406 1199.148438 231.238281 1199 231.386719 C 1198.851562 231.535156 1198.679688 231.652344 1198.484375 231.730469 C 1198.289062 231.8125 1198.085938 231.851562 1197.878906 231.851562 L 1192.882812 231.851562 C 1192.671875 231.851562 1192.46875 231.8125 1192.273438 231.730469 C 1192.082031 231.652344 1191.910156 231.535156 1191.761719 231.386719 C 1191.613281 231.238281 1191.496094 231.066406 1191.417969 230.875 C 1191.335938 230.679688 1191.296875 230.476562 1191.296875 230.265625 L 1191.296875 205.867188 C 1191.296875 205.65625 1191.335938 205.453125 1191.417969 205.261719 C 1191.496094 205.066406 1191.613281 204.894531 1191.761719 204.746094 C 1191.910156 204.597656 1192.082031 204.484375 1192.273438 204.402344 C 1192.46875 204.320312 1192.671875 204.28125 1192.882812 204.28125 Z M 1192.882812 204.28125 "/></g><g clip-rule="nonzero" clip-path="url(#df24ee97d2)"><path style=" stroke:none;fill-rule:nonzero;fill:#fefefe;fill-opacity:1;" d="M 1215.332031 246.136719 L 1239.730469 246.136719 C 1239.941406 246.136719 1240.144531 246.175781 1240.339844 246.257812 C 1240.53125 246.335938 1240.703125 246.453125 1240.851562 246.601562 C 1241 246.75 1241.117188 246.921875 1241.195312 247.113281 C 1241.277344 247.308594 1241.316406 247.511719 1241.316406 247.722656 L 1241.316406 252.71875 C 1241.316406 252.925781 1241.277344 253.128906 1241.195312 253.324219 C 1241.117188 253.519531 1241 253.6875 1240.851562 253.839844 C 1240.703125 253.988281 1240.53125 254.101562 1240.339844 254.183594 C 1240.144531 254.261719 1239.941406 254.300781 1239.730469 254.300781 L 1215.332031 254.300781 C 1215.121094 254.300781 1214.917969 254.261719 1214.726562 254.183594 C 1214.53125 254.101562 1214.359375 253.988281 1214.210938 253.839844 C 1214.0625 253.6875 1213.945312 253.519531 1213.867188 253.324219 C 1213.785156 253.128906 1213.746094 252.925781 1213.746094 252.71875 L 1213.746094 247.722656 C 1213.746094 247.511719 1213.785156 247.308594 1213.867188 247.113281 C 1213.945312 246.921875 1214.0625 246.75 1214.210938 246.601562 C 1214.359375 246.453125 1214.53125 246.335938 1214.726562 246.257812 C 1214.917969 246.175781 1215.121094 246.136719 1215.332031 246.136719 Z M 1215.332031 246.136719 "/></g><g clip-rule="nonzero" clip-path="url(#31bcd5fca0)"><path style=" stroke:none;fill-rule:nonzero;fill:#fefefe;fill-opacity:1;" d="M 1192.882812 268.585938 L 1197.878906 268.585938 C 1198.085938 268.585938 1198.289062 268.625 1198.484375 268.707031 C 1198.679688 268.785156 1198.851562 268.902344 1199 269.050781 C 1199.148438 269.199219 1199.261719 269.371094 1199.34375 269.5625 C 1199.421875 269.757812 1199.460938 269.960938 1199.460938 270.171875 L 1199.460938 294.570312 C 1199.460938 294.78125 1199.421875 294.984375 1199.34375 295.179688 C 1199.261719 295.371094 1199.148438 295.542969 1199 295.691406 C 1198.851562 295.839844 1198.679688 295.957031 1198.484375 296.035156 C 1198.289062 296.117188 1198.085938 296.15625 1197.878906 296.15625 L 1192.882812 296.15625 C 1192.671875 296.15625 1192.46875 296.117188 1192.273438 296.035156 C 1192.082031 295.957031 1191.910156 295.839844 1191.761719 295.691406 C 1191.613281 295.542969 1191.496094 295.371094 1191.417969 295.179688 C 1191.335938 294.984375 1191.296875 294.78125 1191.296875 294.570312 L 1191.296875 270.171875 C 1191.296875 269.960938 1191.335938 269.757812 1191.417969 269.5625 C 1191.496094 269.371094 1191.613281 269.199219 1191.761719 269.050781 C 1191.910156 268.902344 1192.082031 268.785156 1192.273438 268.707031 C 1192.46875 268.625 1192.671875 268.585938 1192.882812 268.585938 Z M 1192.882812 268.585938 "/></g><g clip-rule="nonzero" clip-path="url(#f6fba87256)"><path style=" stroke:none;fill-rule:nonzero;fill:#fefefe;fill-opacity:1;" d="M 1151.027344 246.136719 L 1175.425781 246.136719 C 1175.636719 246.136719 1175.839844 246.175781 1176.035156 246.257812 C 1176.226562 246.335938 1176.398438 246.453125 1176.546875 246.601562 C 1176.695312 246.75 1176.8125 246.921875 1176.890625 247.113281 C 1176.972656 247.308594 1177.011719 247.511719 1177.011719 247.722656 L 1177.011719 252.71875 C 1177.011719 252.925781 1176.972656 253.128906 1176.890625 253.324219 C 1176.8125 253.519531 1176.695312 253.691406 1176.546875 253.839844 C 1176.398438 253.988281 1176.226562 254.101562 1176.035156 254.183594 C 1175.839844 254.261719 1175.636719 254.300781 1175.425781 254.300781 L 1151.027344 254.300781 C 1150.816406 254.300781 1150.613281 254.261719 1150.421875 254.183594 C 1150.226562 254.101562 1150.054688 253.988281 1149.90625 253.839844 C 1149.757812 253.6875 1149.644531 253.519531 1149.5625 253.324219 C 1149.480469 253.128906 1149.441406 252.925781 1149.441406 252.71875 L 1149.441406 247.722656 C 1149.441406 247.511719 1149.480469 247.308594 1149.5625 247.113281 C 1149.644531 246.921875 1149.757812 246.75 1149.90625 246.601562 C 1150.054688 246.453125 1150.226562 246.335938 1150.421875 246.257812 C 1150.613281 246.175781 1150.816406 246.136719 1151.027344 246.136719 Z M 1151.027344 246.136719 "/></g></g></svg>